<svg  viewBox="0 0 814 814" fill="none" xmlns="http://www.w3.org/2000/svg">
<path fill-rule="evenodd" clip-rule="evenodd" d="M80 234V233H80.0021C80.132 202.742 86.1543 172.796 97.7361 144.835C109.445 116.566 126.608 90.8802 148.244 69.2441C169.88 47.6081 195.566 30.4454 223.835 18.7361C252.104 7.02671 282.402 1 313 1C343.598 1 373.896 7.02674 402.165 18.7361C430.434 30.4454 456.12 47.6081 477.756 69.2441C499.392 90.8802 516.555 116.566 528.264 144.835C539.973 173.104 546 203.402 546 234V585.003C546 612.618 523.614 635.003 496 635.003C468.386 635.003 446 612.618 446 585.003V234L446.043 234C446.043 216.529 442.602 199.228 435.916 183.087C429.23 166.945 419.43 152.279 407.076 139.924C394.721 127.57 380.055 117.77 363.913 111.084C347.772 104.398 330.471 100.957 313 100.957C295.529 100.957 278.228 104.398 262.087 111.084C245.945 117.77 231.279 127.57 218.924 139.924C206.57 152.279 196.77 166.945 190.084 183.087C183.526 198.92 180.09 215.869 179.961 233H180V762C180 789.614 157.614 812 130 812V812.004H80V762V677V234ZM729 2V52.0037V137.004V580.004V581.004H728.998C728.868 611.262 722.846 641.208 711.264 669.169C699.555 697.438 682.392 723.124 660.756 744.76C639.12 766.396 613.434 783.558 585.165 795.268C556.896 806.977 526.598 813.004 496 813.004C465.402 813.004 435.104 806.977 406.835 795.268C378.566 783.558 352.88 766.396 331.244 744.76C309.608 723.123 292.445 697.438 280.736 669.169C269.027 640.9 263 610.602 263 580.004V229C263 201.386 285.386 179 313 179C340.614 179 363 201.386 363 229V580.004L362.957 580.004C362.957 597.475 366.398 614.776 373.084 630.917C379.77 647.059 389.57 661.725 401.924 674.079C414.279 686.433 428.945 696.233 445.087 702.919C461.228 709.605 478.529 713.047 496 713.047C513.471 713.047 530.772 709.605 546.913 702.919C563.055 696.233 577.721 686.433 590.076 674.079C602.43 661.725 612.23 647.059 618.916 630.917C625.474 615.084 628.91 598.135 629.039 581.004H629V52.0037C629 24.3894 651.386 2.00366 679 2.00366V2H729Z" fill="black"/>
</svg>
